<svg width="30" height="30" viewBox="0 0 30 30" fill="none" xmlns="http://www.w3.org/2000/svg">
<circle cx="15" cy="15" r="15" fill="#FF6600"/>
<path d="M22.8679 18.6601C22.3196 17.6239 20.2975 16.4389 20.2975 16.4389C19.84 16.1781 19.2879 16.1489 19.0271 16.6139C19.0271 16.6139 18.37 17.4018 18.2029 17.5151C17.4396 18.0322 16.7325 18.0122 16.0187 17.2985L14.36 15.6397L12.7012 13.981C11.9875 13.2673 11.9675 12.5602 12.4845 11.7969C12.5979 11.6298 13.3858 10.9727 13.3858 10.9727C13.8508 10.7115 13.8216 10.1598 13.5608 9.70234C13.5608 9.70234 12.3758 7.68029 11.3395 7.13196C10.8987 6.89863 10.3574 6.9803 10.0049 7.33279L9.27244 8.06528C6.94869 10.389 8.09286 13.0123 10.4166 15.336L12.5404 17.4597L14.6641 19.5834C16.9879 21.9071 19.6112 23.0513 21.935 20.7276L22.6675 19.9951C23.02 19.6418 23.1012 19.1005 22.8679 18.6601Z" fill="white"/>
</svg>
