<svg width="28" height="28" viewBox="0 0 28 28" fill="none" xmlns="http://www.w3.org/2000/svg">
<path d="M0 28L2.408 20.7765C1.18614 18.7214 0.482759 16.323 0.482759 13.7586C0.482759 6.16 6.64276 0 14.2414 0C21.84 0 28 6.16 28 13.7586C28 21.3572 21.84 27.5172 14.2414 27.5172C11.9294 27.5172 9.75221 26.9442 7.84 25.9372L0 28Z" fill="#2CB742"/>
<path d="M20.6549 17.7573C20.1596 16.8214 18.3332 15.751 18.3332 15.751C17.92 15.5155 17.4213 15.4891 17.1858 15.9091C17.1858 15.9091 16.5923 16.6208 16.4413 16.7231C15.7519 17.1902 15.1132 17.1721 14.4685 16.5274L12.9703 15.0292L11.4721 13.531C10.8274 12.8864 10.8093 12.2477 11.2764 11.5583C11.3787 11.4073 12.0904 10.8139 12.0904 10.8139C12.5104 10.5779 12.4841 10.0796 12.2485 9.66641C12.2485 9.66641 11.1782 7.84004 10.2422 7.34478C9.84401 7.13403 9.35514 7.20779 9.03675 7.52617L8.37513 8.18778C6.27626 10.2866 7.3097 12.656 9.40858 14.7549L11.3268 16.6731L13.245 18.5913C15.3439 20.6901 17.7134 21.7235 19.8123 19.6247L20.4739 18.9631C20.7923 18.644 20.8657 18.1551 20.6549 17.7573Z" fill="white"/>
</svg>
